<svg xmlns="http://www.w3.org/2000/svg" width="186.06" height="58" viewBox="0 0 186.06 58"><path d="M-81.63-19.83V-.39a.7.7,0,0,0,.72.69.678.678,0,0,0,.69-.69V-17.94l7.95,12.78a.821.821,0,0,0,.72.45.821.821,0,0,0,.72-.45l7.95-12.78V-.39a.7.7,0,0,0,.72.69.678.678,0,0,0,.69-.69V-19.83a.845.845,0,0,0-.84-.87.934.934,0,0,0-.81.48L-71.55-6.57l-8.43-13.65a.851.851,0,0,0-.78-.48A.87.87,0,0,0-81.63-19.83ZM-55.35-9.57h10.77a.641.641,0,0,0,.63-.66.634.634,0,0,0-.63-.63H-55.35v-8.31h12.33a.609.609,0,0,0,.6-.63.628.628,0,0,0-.6-.63H-56.07a.725.725,0,0,0-.72.69V-.69a.725.725,0,0,0,.72.69h13.05a.609.609,0,0,0,.6-.63.609.609,0,0,0-.6-.63H-55.35Zm30.3-9.6a.615.615,0,0,0,.63-.63.634.634,0,0,0-.63-.63H-40.2a.634.634,0,0,0-.63.63.615.615,0,0,0,.63.63h6.87V-.39a.7.7,0,0,0,.72.69.725.725,0,0,0,.72-.69V-19.17Zm7.38.42,5.04,12.09H-22.68ZM-10.08-.3a.785.785,0,0,0,.75.6.646.646,0,0,0,.69-.69,1.481,1.481,0,0,0-.09-.45l-7.95-19.14a.954.954,0,0,0-.96-.72.973.973,0,0,0-.96.72L-26.55-.84a2.2,2.2,0,0,0-.12.48.614.614,0,0,0,.66.66c.42,0,.6-.21.75-.6l2.19-5.19h10.83ZM-.39-1.68-7.8-20.16a.738.738,0,0,0-.72-.54.693.693,0,0,0-.72.72,2.368,2.368,0,0,0,.09.39L-1.35-.45A1,1,0,0,0-.39.3,1.063,1.063,0,0,0,.6-.45L8.4-19.59a1.288,1.288,0,0,0,.12-.42.686.686,0,0,0-.72-.69.738.738,0,0,0-.72.54ZM12.48-9.57H23.25a.641.641,0,0,0,.63-.66.634.634,0,0,0-.63-.63H12.48v-8.31H24.81a.609.609,0,0,0,.6-.63.628.628,0,0,0-.6-.63H11.76a.725.725,0,0,0-.72.69V-.69a.725.725,0,0,0,.72.69H24.81a.609.609,0,0,0,.6-.63.609.609,0,0,0-.6-.63H12.48ZM30.15-8.4h5.82L42.63-.03a.759.759,0,0,0,.66.33.732.732,0,0,0,.75-.69.8.8,0,0,0-.18-.48L37.74-8.43a6.941,6.941,0,0,0,3.84-1.14,5.4,5.4,0,0,0,2.43-4.83,5.468,5.468,0,0,0-2.43-4.98,8.75,8.75,0,0,0-4.89-1.05H29.43a.73.73,0,0,0-.72.72V-.39a.725.725,0,0,0,.72.69.7.7,0,0,0,.72-.69Zm6.27-10.8a7.718,7.718,0,0,1,4.11.78,4.287,4.287,0,0,1,2.01,4.02,4.275,4.275,0,0,1-2.04,3.99,8.078,8.078,0,0,1-4.11.78H30.15V-19.2Zm23.28.39c0-.45-.57-.75-1.11-.99a12.164,12.164,0,0,0-4.62-.9c-4.53,0-6.99,1.92-6.99,5.28,0,2.22,1.38,3.54,3.3,4.38,2.34,1.02,4.32,1.23,6.18,2.1a3.82,3.82,0,0,1,2.61,3.48c0,2.7-1.86,4.5-5.43,4.5a8.818,8.818,0,0,1-3.75-.78c-1.53-.69-1.8-1.23-2.28-1.23a.693.693,0,0,0-.72.72,1.221,1.221,0,0,0,.72.93A12.643,12.643,0,0,0,53.64.3c4.2,0,6.96-2.13,6.96-5.88a4.868,4.868,0,0,0-2.79-4.35c-2.01-1.05-4.05-1.26-6.21-2.1-1.92-.72-3.12-1.71-3.12-3.42,0-2.58,1.77-3.99,5.43-3.99a9.616,9.616,0,0,1,3.18.54c1.02.33,1.5.75,1.92.75A.638.638,0,0,0,59.7-18.81Zm5.91,9.24H76.38a.641.641,0,0,0,.63-.66.634.634,0,0,0-.63-.63H65.61v-8.31H77.94a.609.609,0,0,0,.6-.63.628.628,0,0,0-.6-.63H64.89a.725.725,0,0,0-.72.69V-.69a.725.725,0,0,0,.72.69H77.94a.609.609,0,0,0,.6-.63.609.609,0,0,0-.6-.63H65.61ZM82.74-.6a.828.828,0,0,0-.84-.87A.859.859,0,0,0,81-.6a.859.859,0,0,0,.9.87A.828.828,0,0,0,82.74-.6ZM-92.31,16.57a.725.725,0,0,0-.72.69V36.61a.725.725,0,0,0,.72.69.7.7,0,0,0,.72-.69V27.43h9.84a.641.641,0,0,0,.63-.66.634.634,0,0,0-.63-.63h-9.84V17.83h11.37a.615.615,0,0,0,.63-.63.634.634,0,0,0-.63-.63Zm35.43,10.26A10.569,10.569,0,0,0-67.44,16.3,10.544,10.544,0,0,0-77.97,26.83,10.492,10.492,0,0,0-67.44,37.3,10.537,10.537,0,0,0-56.88,26.83Zm-1.5,0a9.11,9.11,0,0,1-9.06,9.15,9.1,9.1,0,0,1-9.03-9.15,9.129,9.129,0,0,1,9.03-9.18A9.135,9.135,0,0,1-58.38,26.83Zm13.83,9.18A7,7,0,0,1-49.83,34a7.538,7.538,0,0,1-1.77-5.28V16.99a.725.725,0,0,0-.72-.69.7.7,0,0,0-.72.69V28.93a8.468,8.468,0,0,0,2.01,5.88,8.534,8.534,0,0,0,6.48,2.49,8.558,8.558,0,0,0,6.51-2.49,8.468,8.468,0,0,0,2.01-5.88V16.99a.7.7,0,0,0-.72-.69.725.725,0,0,0-.72.69V28.72A7.538,7.538,0,0,1-39.24,34,7.028,7.028,0,0,1-44.55,36.01Zm30.63-19.05a.673.673,0,0,0-.69-.66.655.655,0,0,0-.69.66V34.75l-14.52-18a.933.933,0,0,0-.75-.45.8.8,0,0,0-.81.78V36.64a.681.681,0,0,0,.72.66.673.673,0,0,0,.69-.66V18.85l14.46,18a.981.981,0,0,0,.78.45.782.782,0,0,0,.81-.78ZM8.97,26.8a10.273,10.273,0,0,0-2.31-6.96c-2.04-2.28-5.01-3.27-8.58-3.27h-6.6a.725.725,0,0,0-.72.69V36.31a.725.725,0,0,0,.72.69h6.15a13.091,13.091,0,0,0,7.11-1.8C7.32,33.58,8.97,30.82,8.97,26.8Zm-16.77-9h5.61c3.24,0,5.91.96,7.62,2.88a8.971,8.971,0,0,1,2.1,6.12,8.237,8.237,0,0,1-3.87,7.44,11.645,11.645,0,0,1-6.21,1.53H-7.8Zm27.54.45,5.04,12.09H14.73ZM27.33,36.7a.785.785,0,0,0,.75.6.646.646,0,0,0,.69-.69,1.481,1.481,0,0,0-.09-.45L20.73,17.02a.954.954,0,0,0-.96-.72.973.973,0,0,0-.96.72L10.86,36.16a2.2,2.2,0,0,0-.12.48.614.614,0,0,0,.66.66c.42,0,.6-.21.75-.6l2.19-5.19H25.17Zm15-18.87a.615.615,0,0,0,.63-.63.634.634,0,0,0-.63-.63H27.18a.634.634,0,0,0-.63.63.615.615,0,0,0,.63.63h6.87V36.61a.7.7,0,0,0,.72.69.725.725,0,0,0,.72-.69V17.83ZM45.3,36.61a.725.725,0,0,0,.72.69.7.7,0,0,0,.72-.69V16.99a.7.7,0,0,0-.72-.69.725.725,0,0,0-.72.69Zm26.4-9.78A10.545,10.545,0,1,0,61.14,37.3,10.569,10.569,0,0,0,71.7,26.83Zm-1.5,0a9.046,9.046,0,1,1-9.06-9.18A9.11,9.11,0,0,1,70.2,26.83Zm22.83-9.87a.673.673,0,0,0-.69-.66.655.655,0,0,0-.69.66V34.75l-14.52-18a.933.933,0,0,0-.75-.45.8.8,0,0,0-.81.78V36.64a.681.681,0,0,0,.72.66.673.673,0,0,0,.69-.66V18.85l14.46,18a.981.981,0,0,0,.78.45.782.782,0,0,0,.81-.78Z" transform="translate(93.03 20.7)" fill="#fff"/></svg>